<svg data-name="Capa 1" xmlns="http://www.w3.org/2000/svg" viewBox="0 0 394.3 76.5"><path d="M156.6 69.4h-11.3V7.1h11.3zm49.6 0h-11v-4.6a15.4 15.4 0 01-12.6 5.7c-11.6 0-20.3-9.5-20.3-22.1s8.8-22.1 20.3-22.1a15.4 15.4 0 0112.6 5.8v-4.6h11zm-32.4-21c0 6.4 4.2 11.6 10.8 11.6s10.8-4.9 10.8-11.6-4.4-11.6-10.8-11.6-10.7 5.2-10.7 11.6zm88.7-34.7a7.2 7.2 0 01-14.4 0 7.2 7.2 0 1114.4 0zM261 69.4h-11.4v-42H261z" fill="#fff"/><path data-name="&lt;Trazado&gt;" d="M139.6 17.8a16.6 16.6 0 00-8-1.4c-3.2.4-4.9 2-4.9 5.9v5.1h13v10.1h-13v32h-11.3v-32h-7.8v-10h7.8v-5.3c0-9.9 5.2-16.3 15-16.3a23.4 23.4 0 019.3 1.8z" fill="#fff"/><path d="M235.1 60c-3.5 0-6.3-1.9-6.3-7.1V37.5H244v-10h-15.2V15h-11.3v12.5h-5.7v10h5.7v16.2c0 10.9 5.3 16.8 15.7 16.8A22.9 22.9 0 00244 68l-4.3-9.1a12.3 12.3 0 01-4.6 1.1zm113.8-11.6c0 12.6-9.7 22.1-22.7 22.1s-22.7-9.4-22.7-22.1 9.6-22.1 22.7-22.1 22.7 9.5 22.7 22.1zm-33.9 0c0 6.8 4.8 11.6 11.1 11.6s11.2-4.8 11.2-11.6-4.8-11.6-11.2-11.6-11 4.8-11 11.6zm79.3-5.7v26.7h-11.4V46.3c0-6.1-3-9.4-8.2-9.4s-8.9 3.2-8.9 9.5v23h-11.2v-42h11v4.9c3-4.5 7.6-6.1 12.3-6.1 9.6.1 16.4 6.8 16.4 16.5z" fill="#fff"/><path d="M298 55.7a12.4 12.4 0 01-8.2 4.2h-.9l-1.8-.2a10 10 0 01-7.4-5.6 13.2 13.2 0 01-1.2-5.8 13 13 0 011.3-5.9 10.1 10.1 0 017.5-5.5h2.4a11.7 11.7 0 018.3 4.2l5.5-9.6a19.9 19.9 0 00-8.1-4.3 23.4 23.4 0 00-6.1-.8 25.2 25.2 0 00-7.5 1.1 20.9 20.9 0 00-8 4.6 21.9 21.9 0 00-6.8 16.4 21.9 21.9 0 006.7 16.3 20.9 20.9 0 008 4.6 25.2 25.2 0 007.7 1.2 23.6 23.6 0 006.2-.8 20 20 0 008.1-4.4z" fill="#fff"/><path d="M46.3 26.5H26.9L20.8 16h31.6l9.2-16H9.4a9.3 9.3 0 00-8.1 4.7 9.3 9.3 0 000 9.4l33.3 57.7a9.4 9.4 0 0016.2 0l1.1-1.9-15.3-26.6z" fill="#4ad295"/><path d="M84.2 4.7A9.3 9.3 0 0076.1 0h-2.3l-25 43.3 9.2 16L84.2 14a9.3 9.3 0 000-9.3z" fill="#4ad295"/></svg>