<?xml version="1.0" encoding="UTF-8"?>
<svg xmlns="http://www.w3.org/2000/svg" id="Outline" viewBox="0 0 24 24" width="512" height="512"><path d="M18,19a1,1,0,0,0,.707-1.707l-6.172-6.171a5,5,0,0,0-7.07,0L3.293,13.293a1,1,0,0,0,1.414,1.414l2.172-2.171a3.07,3.07,0,0,1,4.242,0l6.172,6.171A1,1,0,0,0,18,19Z"/><path d="M16,10.5A3.5,3.5,0,1,0,12.5,7,3.5,3.5,0,0,0,16,10.5Zm0-5A1.5,1.5,0,1,1,14.5,7,1.5,1.5,0,0,1,16,5.5Z"/><path d="M23,16a1,1,0,0,0-1,1v2a3,3,0,0,1-3,3H17a1,1,0,0,0,0,2h2a5.006,5.006,0,0,0,5-5V17A1,1,0,0,0,23,16Z"/><path d="M1,8A1,1,0,0,0,2,7V5A3,3,0,0,1,5,2H7A1,1,0,0,0,7,0H5A5.006,5.006,0,0,0,0,5V7A1,1,0,0,0,1,8Z"/><path d="M7,22H5a3,3,0,0,1-3-3V17a1,1,0,0,0-2,0v2a5.006,5.006,0,0,0,5,5H7a1,1,0,0,0,0-2Z"/><path d="M19,0H17a1,1,0,0,0,0,2h2a3,3,0,0,1,3,3V7a1,1,0,0,0,2,0V5A5.006,5.006,0,0,0,19,0Z"/></svg>
