<?xml version="1.0" encoding="UTF-8"?>
<svg xmlns="http://www.w3.org/2000/svg" id="Outline" viewBox="0 0 24 24" width="512" height="512"><path d="M19,4h-.508L16.308,1.168A3.023,3.023,0,0,0,13.932,0H10.068A3.023,3.023,0,0,0,7.692,1.168L5.508,4H5A5.006,5.006,0,0,0,0,9V19a5.006,5.006,0,0,0,5,5H19a5.006,5.006,0,0,0,5-5V9A5.006,5.006,0,0,0,19,4ZM9.276,2.39A1.006,1.006,0,0,1,10.068,2h3.864a1.008,1.008,0,0,1,.792.39L15.966,4H8.034ZM22,19a3,3,0,0,1-3,3H5a3,3,0,0,1-3-3V9A3,3,0,0,1,5,6H19a3,3,0,0,1,3,3Z"/><path d="M12,8a6,6,0,1,0,6,6A6.006,6.006,0,0,0,12,8Zm0,10a4,4,0,1,1,4-4A4,4,0,0,1,12,18Z"/></svg>
