<?xml version="1.0" encoding="utf-8"?>
<!-- Generator: Adobe Illustrator 21.1.0, SVG Export Plug-In . SVG Version: 6.00 Build 0)  -->
<svg version="1.1" id="_x38_cf89355-66a0-412e-b33a-ed66ca643c25"
	 xmlns="http://www.w3.org/2000/svg" xmlns:xlink="http://www.w3.org/1999/xlink" x="0px" y="0px" viewBox="0 0 530 537"
	 style="enable-background:new 0 0 530 537;" xml:space="preserve">
<style type="text/css">
	.st0{opacity:0.5;}
	.st1{fill:#303947;}
	.st2{fill:#252F3A;}
	.st3{fill:#33414F;}
	.st4{opacity:0.15;enable-background:new    ;}
	.st5{opacity:0.2;enable-background:new    ;}
	.st6{fill:#B388FF;}
	.st7{fill:#FFFFFF;}
</style>
<title>Untitled-5</title>
<g class="st0">
	<path d="M265,537C118.6,537,0,418.3,0,272c0-70.3,27.9-137.7,77.6-187.4c103.5-103.5,271.3-103.5,374.8,0s103.5,271.3,0,374.8
		C402.7,509.1,335.3,537,265,537z M265,37C135.4,37,30,142.4,30,272s105.4,235,235,235s235-105.4,235-235S394.6,37,265,37z"/>
</g>
<circle class="st1" cx="265" cy="265" r="250"/>
<path class="st2" d="M265,530C118.6,530,0,411.3,0,265c0-70.3,27.9-137.7,77.6-187.4c103.5-103.5,271.3-103.5,374.8,0
	s103.5,271.3,0,374.8C402.7,502.1,335.3,530,265,530z M265,30C135.4,30,30,135.4,30,265s105.4,235,235,235s235-105.4,235-235
	S394.6,30,265,30z"/>
<circle class="st3" cx="265" cy="265" r="125"/>
<path class="st4" d="M265,0.3C118.7,0.3,0.2,118.9,0.2,265.1h529.7C529.8,118.9,411.3,0.3,265,0.3z"/>
<path class="st5" d="M196.2,379.4c-24.4,0-44.2-19.8-44.2-44.2v-28.4c0-9.4-5.5-18-14-22l-0.3-0.1c-7-3.2-10.1-11.5-6.9-18.6
	c1.4-3.1,3.9-5.5,6.9-6.9c8.6-4,14.2-12.6,14.2-22.1v-28.5c0-24.4,19.8-44.2,44.2-44.2c5.5,0,10,4.5,10,10s-4.5,10-10,10
	c-13.4,0-24.2,10.8-24.2,24.2V237c0,13.6-6.3,26.5-17,34.9c10.7,8.4,17,21.3,17,34.9v28.4c0,13.4,10.8,24.2,24.2,24.2
	c5.5,0,10,4.5,10,10C206.1,374.9,201.7,379.3,196.2,379.4z"/>
<path class="st5" d="M327.4,379.4c-5.5,0-10-4.5-10-10s4.5-10,10-10c13.4,0,24.2-10.8,24.2-24.2v-28.5c0-13.6,6.3-26.5,17-34.9
	c-10.7-8.4-17-21.3-17-34.9v-28.4c0-13.4-10.8-24.2-24.2-24.2c-5.5,0-10-4.5-10-10s4.5-10,10-10c24.4,0,44.2,19.8,44.2,44.2v28.4
	c0,9.4,5.5,18,14,22l0.3,0.1c7,3.2,10.1,11.5,6.9,18.6c-1.4,3.1-3.9,5.5-6.9,6.9c-8.6,4-14.2,12.6-14.2,22.1v28.5
	C371.6,359.5,351.8,379.3,327.4,379.4z"/>
<path class="st5" d="M295.4,218.2c5.5,0,10.1,4.5,10.1,10V318c0,5.6-4.5,10.1-10,10.1c0,0,0,0-0.1,0c-5.2,0-8.5-2.5-9.7-7.6
	c-7.3,5-16,7.7-24.9,7.6H260c-24.7,0-44.7-20-44.7-44.7v-20.5c0-24.7,20-44.7,44.7-44.7h0.8c8.9-0.1,17.6,2.6,24.9,7.6
	C286.9,220.8,290.2,218.2,295.4,218.2z M285.4,262.9c-0.1-13.6-11-24.5-24.6-24.6H260c-13.6,0-24.6,11-24.6,24.6l0,0v20.5
	c0,13.6,11,24.6,24.6,24.6l0,0h0.8c13.6-0.1,24.5-11,24.6-24.6V262.9z"/>
<path class="st5" d="M312,456.3c-5.5,0-10-4.5-10-10c0-4.4,2.9-8.4,7.2-9.6C381.5,415.5,432,348,432,272.6c0-94.3-76.7-171-171-171
	s-171,76.7-171,171c0,75.4,50.5,142.9,122.8,164.1c5.3,1.5,8.3,7.1,6.8,12.4s-7.1,8.3-12.4,6.8c-39.1-11.6-73.5-35.4-98.3-67.8
	C83.5,355,69.8,314.3,70,272.6c0-105.3,85.7-191,191-191s191,85.7,191,191c0.2,41.7-13.5,82.4-38.9,115.5
	c-24.7,32.5-59.2,56.2-98.3,67.8C313.9,456.2,312.9,456.3,312,456.3z"/>
<path class="st6" d="M204.2,371.4c-24.4,0-44.2-19.8-44.2-44.2v-28.4c0-9.4-5.5-18-14-22l-0.3-0.1c-7-3.2-10.1-11.5-6.9-18.6
	c1.4-3.1,3.9-5.5,6.9-6.9c8.6-4,14.2-12.6,14.2-22.1v-28.5c0-24.4,19.8-44.2,44.2-44.2c5.5,0,10,4.5,10,10s-4.5,10-10,10
	c-13.4,0-24.2,10.8-24.2,24.2V229c0,13.6-6.3,26.5-17,34.9c10.7,8.4,17,21.3,17,34.9v28.4c0,13.4,10.8,24.2,24.2,24.2
	c5.5,0,10,4.5,10,10C214.1,366.9,209.7,371.3,204.2,371.4z"/>
<path class="st6" d="M335.4,371.4c-5.5,0-10-4.5-10-10s4.5-10,10-10c13.4,0,24.2-10.8,24.2-24.2v-28.5c0-13.6,6.3-26.5,17-34.9
	c-10.7-8.4-17-21.3-17-34.9v-28.4c0-13.4-10.8-24.2-24.2-24.2c-5.5,0-10-4.5-10-10s4.5-10,10-10c24.4,0,44.2,19.8,44.2,44.2v28.4
	c0,9.4,5.5,18,14,22l0.3,0.1c5,2.3,8.2,7.3,8.1,12.8c0,5.5-3.2,10.4-8.2,12.7c-8.6,4-14.2,12.6-14.2,22.1v28.5
	C379.6,351.5,359.8,371.3,335.4,371.4z"/>
<path class="st7" d="M303.4,210.2c5.5,0,10.1,4.5,10.1,10V310c0,5.6-4.5,10.1-10,10.1c0,0,0,0-0.1,0c-5.2,0-8.5-2.5-9.7-7.6
	c-7.3,5-16,7.7-24.9,7.6H268c-24.7,0-44.7-20-44.7-44.7v-20.5c0-24.7,20-44.7,44.7-44.7h0.8c8.9-0.1,17.6,2.6,24.9,7.6
	C294.9,212.8,298.2,210.2,303.4,210.2z M293.4,254.9c-0.1-13.6-11-24.5-24.6-24.6H268c-13.6,0-24.6,11-24.6,24.6l0,0v20.5
	c0,13.6,11,24.6,24.6,24.6l0,0h0.8c13.6-0.1,24.5-11,24.6-24.6V254.9z"/>
<path class="st7" d="M320,448.3c-5.5,0-10-4.5-10-10c0-4.4,2.9-8.4,7.2-9.6C389.5,407.5,440,340,440,264.6c0-94.3-76.7-171-171-171
	s-171,76.7-171,171c0,75.4,50.5,142.9,122.8,164.1c5.3,1.5,8.3,7.1,6.8,12.4s-7.1,8.3-12.4,6.8l0,0c-39.1-11.6-73.5-35.4-98.3-67.8
	C91.5,347,77.8,306.3,78,264.6c0-105.3,85.7-191,191-191s191,85.7,191,191c0.2,41.7-13.5,82.4-38.9,115.5
	c-24.7,32.5-59.2,56.2-98.3,67.8C321.9,448.2,320.9,448.3,320,448.3z"/>
</svg>
